<?xml version="1.0" encoding="utf-8"?>
<!-- Generator: Adobe Illustrator 17.0.0, SVG Export Plug-In . SVG Version: 6.00 Build 0)  -->
<!DOCTYPE svg PUBLIC "-//W3C//DTD SVG 1.1//EN" "http://www.w3.org/Graphics/SVG/1.1/DTD/svg11.dtd">
<svg version="1.1" id="Layer_1" xmlns="http://www.w3.org/2000/svg" xmlns:xlink="http://www.w3.org/1999/xlink" x="0px" y="0px"
	 width="375px" height="342px" viewBox="0 0 375 342" enable-background="new 0 0 375 342" xml:space="preserve">
<path fill="#333333" d="M187.5,3c-92.784,0-168,75.216-168,168s75.216,168,168,168s168-75.216,168-168S280.284,3,187.5,3z"/>
<g>
	<path fill="#F15B2A" stroke="#FFFFFF" stroke-width="9.7137" stroke-miterlimit="10" d="M245.962,208.52l46.091-31.704
		l-10.638-15.465c6.774-15.595,5.612-34.222-4.734-49.263c-15.962-23.205-47.713-29.077-70.918-13.115s-29.077,47.713-13.115,70.918
		c9.863,14.339,25.755,22.059,41.934,22.1L245.962,208.52z"/>
	
		<line fill="#66C8C8" stroke="#FFFFFF" stroke-width="9.714" stroke-linecap="round" stroke-miterlimit="10" x1="258.493" y1="227.645" x2="304.584" y2="195.94"/>
	
		<line fill="#66C8C8" stroke="#FFFFFF" stroke-width="9.714" stroke-linecap="round" stroke-miterlimit="10" x1="306.363" y1="218.841" x2="278.768" y2="237.823"/>
</g>
<g>
	<path fill="#66C8C8" stroke="#FFFFFF" stroke-width="12.0013" stroke-miterlimit="10" d="M94.741,180.156l57.377,38.538
		l12.931-19.252c20.996,0.693,41.866-9.11,54.442-27.834c19.402-28.887,11.714-68.032-17.173-87.435s-68.032-11.714-87.435,17.173
		c-11.989,17.85-13.634,39.616-6.326,58.222L94.741,180.156z"/>
	
		<line fill="#66C8C8" stroke="#FFFFFF" stroke-width="12.0017" stroke-linecap="round" stroke-miterlimit="10" x1="79.221" y1="203.774" x2="136.598" y2="242.313"/>
	
		<line fill="#66C8C8" stroke="#FFFFFF" stroke-width="12.0017" stroke-linecap="round" stroke-miterlimit="10" x1="111.097" y1="254.767" x2="76.746" y2="231.695"/>
</g>
</svg>
